<svg width="512" height="410" viewBox="0 0 512 410" fill="none" xmlns="http://www.w3.org/2000/svg">
<path d="M286.42 186.585C282.196 185.154 276.816 185.165 272.182 186.317C267.617 187.451 262.813 189.959 260.995 194.34L214.802 305.596C213.09 309.718 214.144 314.2 216.328 317.779C218.517 321.366 222.136 324.551 226.45 326.012C230.695 327.45 236.071 327.392 240.685 326.199C245.237 325.021 249.989 322.469 251.798 318.112L297.99 206.856C299.698 202.744 298.676 198.3 296.502 194.744C294.325 191.182 290.721 188.041 286.42 186.585Z" fill="white"/>
<path d="M198.786 210.965C196.283 206.714 191.422 204.055 186.44 202.984C181.456 201.913 175.757 202.296 171.242 204.782L105.374 244.012L105.34 244.033C100.595 246.933 98.1543 252.751 98.1543 257.608C98.1543 260.128 98.7937 262.874 99.9372 265.318C101.062 267.723 102.825 270.151 105.339 271.688L172.533 311.228C177.457 314.159 183.133 314.139 187.853 312.674C192.507 311.228 196.661 308.257 198.786 304.648C200.661 301.466 202.068 297.337 201.709 293.132C201.339 288.802 199.09 284.49 193.913 281.36L150.109 257.552L192.818 233.315C197.406 230.803 199.872 226.8 200.708 222.74C201.538 218.709 200.818 214.415 198.786 210.965Z" fill="white"/>
<path d="M339.497 204.843L406.682 244.377C409.196 245.914 410.959 248.342 412.084 250.747C413.227 253.191 413.867 255.938 413.867 258.458C413.867 263.314 411.427 269.132 406.681 272.033L406.647 272.054L340.779 311.284C336.264 313.77 330.565 314.153 325.581 313.081C320.599 312.01 315.738 309.351 313.235 305.101C311.203 301.651 310.483 297.357 311.313 293.326C312.149 289.265 314.615 285.262 319.203 282.75L361.912 258.514L318.108 234.705C312.931 231.575 310.682 227.264 310.312 222.934C309.954 218.729 311.36 214.6 313.235 211.417C315.36 207.808 319.514 204.837 324.169 203.392C328.888 201.926 334.574 201.913 339.497 204.843Z" fill="white"/>
<path fill-rule="evenodd" clip-rule="evenodd" d="M70 0.833328C31.4781 0.833328 0.25 28.2559 0.25 62.0833V347.917C0.25 381.744 31.4781 409.167 70 409.167H442C480.522 409.167 511.75 381.744 511.75 347.917V62.0833C511.75 28.2559 480.522 0.833328 442 0.833328H70ZM46.75 347.917V143.832H465.25V347.917C465.25 359.192 454.841 368.333 442 368.333H70C57.1594 368.333 46.75 359.192 46.75 347.917ZM116.636 73.6395C116.636 84.9153 106.227 94.0561 93.3862 94.0561C80.5456 94.0561 70.1362 84.9153 70.1362 73.6395C70.1362 62.3636 80.5456 53.2228 93.3862 53.2228C106.227 53.2228 116.636 62.3636 116.636 73.6395ZM186.386 73.6395C186.386 84.9153 175.977 94.0561 163.136 94.0561C150.296 94.0561 139.886 84.9153 139.886 73.6395C139.886 62.3636 150.296 53.2228 163.136 53.2228C175.977 53.2228 186.386 62.3636 186.386 73.6395ZM232.886 94.0561C245.727 94.0561 256.136 84.9153 256.136 73.6395C256.136 62.3636 245.727 53.2228 232.886 53.2228C220.046 53.2228 209.636 62.3636 209.636 73.6395C209.636 84.9153 220.046 94.0561 232.886 94.0561Z" fill="white"/>
</svg>
